<?xml version="1.0" encoding="utf-8"?>
<svg viewBox="69.902 26.807 103.712 76.992" width="103.712" height="76.992" xmlns="http://www.w3.org/2000/svg">
  <rect y="42.246" width="8.886" height="11.685" style="stroke: rgb(0, 0, 0); fill: rgb(56, 101, 171);" x="75.714"/>
  <rect y="56.931" width="8.886" height="11.685" style="stroke: rgb(0, 0, 0); fill: rgb(56, 101, 171);" x="75.714"/>
  <rect y="42.246" width="8.886" height="11.685" style="stroke: rgb(0, 0, 0); fill: rgb(132, 175, 241);" x="87.6"/>
  <rect y="56.931" width="8.886" height="11.685" style="stroke: rgb(0, 0, 0); fill: rgb(56, 101, 171);" x="87.6"/>
  <rect y="42.246" width="8.886" height="11.685" style="stroke: rgb(0, 0, 0); fill: rgb(132, 175, 241);" x="99.486"/>
  <rect y="56.931" width="8.886" height="11.685" style="stroke: rgb(0, 0, 0); fill: rgb(248, 179, 29);" x="99.486"/>
  <rect y="42.246" width="8.886" height="11.685" style="stroke: rgb(0, 0, 0); fill: rgb(56, 101, 171);" x="111.372"/>
  <rect y="56.931" width="8.886" height="11.685" style="stroke: rgb(0, 0, 0); fill: rgb(132, 175, 241);" x="111.372"/>
  <rect x="75.714" y="36.433" width="44.544" height="2.813" style="stroke: rgb(0, 0, 0); fill: rgb(65, 65, 65);"/>
  <rect y="77.429" width="8.886" height="11.685" style="stroke: rgb(0, 0, 0); fill: rgb(56, 101, 171);" x="75.714"/>
  <rect y="92.114" width="8.886" height="11.685" style="stroke: rgb(0, 0, 0); fill: rgb(65, 65, 65);" x="75.714"/>
  <rect y="77.429" width="8.886" height="11.685" style="stroke: rgb(0, 0, 0); fill: rgb(65, 65, 65);" x="87.6"/>
  <rect y="92.114" width="8.886" height="11.685" style="stroke: rgb(0, 0, 0); fill: rgb(56, 101, 171);" x="87.6"/>
  <rect y="77.429" width="8.886" height="11.685" style="stroke: rgb(0, 0, 0); fill: rgb(65, 65, 65);" x="99.486"/>
  <rect y="92.114" width="8.886" height="11.685" style="stroke: rgb(0, 0, 0); fill: rgb(65, 65, 65);" x="99.486"/>
  <rect y="77.429" width="8.886" height="11.685" style="stroke: rgb(0, 0, 0); fill: rgb(56, 101, 171);" x="111.372"/>
  <rect y="92.114" width="8.886" height="11.685" style="stroke: rgb(0, 0, 0); fill: rgb(65, 65, 65);" x="111.372"/>
  <rect x="75.714" y="71.616" width="44.544" height="2.813" style="stroke: rgb(0, 0, 0); fill: rgb(65, 65, 65);"/>
  <rect x="69.902" y="26.807" width="2.812" height="76.992" style="stroke: rgb(0, 0, 0); fill: rgb(65, 65, 65);"/>
  <text style="fill: rgb(255, 255, 255); font-family: Arial, sans-serif; font-size: 6.8px; white-space: pre;" x="76.229" y="33.736">x9000c0</text>
  <rect y="42.245" width="8.886" height="11.685" style="stroke: rgb(0, 0, 0); fill: rgb(132, 175, 241);" x="129.07"/>
  <rect y="56.93" width="8.886" height="11.685" style="stroke: rgb(0, 0, 0); fill: rgb(248, 179, 29);" x="129.07"/>
  <rect y="42.245" width="8.886" height="11.685" style="stroke: rgb(0, 0, 0); fill: rgb(242, 202, 13);" x="140.956"/>
  <rect y="56.93" width="8.886" height="11.685" style="stroke: rgb(0, 0, 0); fill: rgb(132, 175, 241);" x="140.956"/>
  <rect y="42.245" width="8.886" height="11.685" style="stroke: rgb(0, 0, 0); fill: rgb(248, 179, 29);" x="152.842"/>
  <rect y="56.93" width="8.886" height="11.685" style="stroke: rgb(0, 0, 0); fill: rgb(248, 179, 29);" x="152.842"/>
  <rect y="42.245" width="8.886" height="11.685" style="stroke: rgb(0, 0, 0); fill: rgb(132, 175, 241);" x="164.728"/>
  <rect y="56.93" width="8.886" height="11.685" style="stroke: rgb(0, 0, 0); fill: rgb(65, 65, 65);" x="164.728"/>
  <rect x="129.07" y="36.432" width="44.544" height="2.813" style="stroke: rgb(0, 0, 0); fill: rgb(65, 65, 65);"/>
  <rect y="77.428" width="8.886" height="11.685" style="stroke: rgb(0, 0, 0); fill: rgb(242, 202, 13);" x="129.07"/>
  <rect y="92.113" width="8.886" height="11.685" style="stroke: rgb(0, 0, 0); fill: rgb(65, 65, 65);" x="129.07"/>
  <rect y="77.428" width="8.886" height="11.685" style="stroke: rgb(0, 0, 0); fill: rgb(56, 101, 171);" x="140.956"/>
  <rect y="92.113" width="8.886" height="11.685" style="stroke: rgb(0, 0, 0); fill: rgb(65, 65, 65);" x="140.956"/>
  <rect y="77.428" width="8.886" height="11.685" style="stroke: rgb(0, 0, 0); fill: rgb(132, 175, 241);" x="152.842"/>
  <rect y="92.113" width="8.886" height="11.685" style="stroke: rgb(0, 0, 0); fill: rgb(65, 65, 65);" x="152.842"/>
  <g transform="matrix(1, 0, 0, 1, -80.335838, -159.828629)">
    <rect y="237.257" width="8.886" height="11.685" style="stroke: rgb(0, 0, 0); fill: rgb(65, 65, 65);" x="245.064"/>
    <rect y="251.942" width="8.886" height="11.685" style="stroke: rgb(0, 0, 0); fill: rgb(65, 65, 65);" x="245.064"/>
  </g>
  <rect x="129.07" y="71.615" width="44.544" height="2.813" style="stroke: rgb(0, 0, 0); fill: rgb(65, 65, 65);"/>
  <rect x="123.258" y="26.807" width="2.812" height="76.992" style="stroke: rgb(0, 0, 0); fill: rgb(65, 65, 65);"/>
  <text style="fill: rgb(255, 255, 255); font-family: Arial, sans-serif; font-size: 6.8px; white-space: pre;" x="129.585" y="33.736">x9000c1</text>
</svg>